<?xml version="1.0" encoding="utf-8"?>
<!-- Generator: Adobe Illustrator 24.0.0, SVG Export Plug-In . SVG Version: 6.00 Build 0)  -->
<svg version="1.1" id="Capa_1" xmlns="http://www.w3.org/2000/svg" xmlns:xlink="http://www.w3.org/1999/xlink" x="0px" y="0px"
	 viewBox="0 0 500 55.9" style="enable-background:new 0 0 500 55.9;" xml:space="preserve">
<style type="text/css">
	.st0{fill:#FFFFFF;}
</style>
<g id="facebook">
	<path class="st0" d="M40.2,2.5v7c0,0.5-0.3,0.8-0.8,0.8H9.6v14.2h24.6c0.5,0,0.8,0.3,0.8,0.8v7c0,0.5-0.3,0.8-0.8,0.8H9.6v21
		c0,0.5-0.3,0.8-0.8,0.8H1.4c-0.5,0-0.8-0.3-0.8-0.8V2.5c0-0.5,0.3-0.8,0.8-0.8h38.1C39.9,1.7,40.2,2,40.2,2.5z"/>
	<path class="st0" d="M101.1,54.7h-8.2c-0.5,0-0.8-0.2-0.9-0.7c-1.1-4.3-2.4-8.9-3.9-13.5H62.8c-1.5,4.6-2.8,9.2-3.9,13.5
		c-0.1,0.5-0.4,0.7-0.9,0.7h-7.9c-0.5,0-0.8-0.3-0.7-0.8c4.8-16.9,12-35.4,19.3-51.1c0.3-0.7,0.8-1,1.5-1H81c0.7,0,1.1,0.3,1.5,1
		C89.9,18.3,97,37,101.8,53.8C102,54.4,101.6,54.7,101.1,54.7z M85.3,32.3c-2.8-7.6-5.8-15.3-9-22.2h-1.8c-3.1,7-6.2,14.6-9,22.2
		H85.3z"/>
	<path class="st0" d="M114.6,28.7c0-16.4,10.8-27.9,26.2-27.9h1.1c9.7,0,17.2,4.9,21.1,12c0.3,0.5,0.2,0.8-0.3,1.1l-6.7,3.3
		c-0.5,0.2-1,0.2-1.3-0.3c-2.8-4.8-7-7.4-13.2-7.4h-1.1c-9.7,0-16.4,7.7-16.4,18.9c0,11.2,6.6,18.7,16.4,18.7h1.1
		c6.3,0,10.1-2.2,12.9-5.4c0.4-0.4,0.8-0.5,1.2-0.3l6.8,3.3c0.3,0.2,0.4,0.3,0.4,0.5s-0.1,0.3-0.2,0.6c-4.2,6.1-11.8,9.9-21,9.9
		h-1.1C125,55.6,114.6,44.9,114.6,28.7z"/>
	<path class="st0" d="M223.3,46.9v7c0,0.5-0.3,0.8-0.8,0.8h-39.7c-0.5,0-0.8-0.3-0.8-0.8V2.5c0-0.5,0.3-0.8,0.8-0.8h39
		c0.5,0,0.8,0.3,0.8,0.8v7c0,0.5-0.3,0.8-0.8,0.8h-30.8V24h25c0.5,0,0.8,0.3,0.8,0.8v6.9c0,0.5-0.3,0.8-0.8,0.8h-25v13.8h31.4
		C223,46.2,223.3,46.5,223.3,46.9z"/>
	<path class="st0" d="M291.7,40.1c0,9.3-7.1,14.5-19.7,14.5h-26c-0.5,0-0.8-0.3-0.8-0.8V2.5c0-0.5,0.3-0.8,0.8-0.8h23.7
		c12.2,0,18.9,4.8,18.9,13.7c0,5.8-2.9,9.6-8.9,11.4C288,28.6,291.7,33.6,291.7,40.1z M269.5,10h-15.3v14.2h15.3
		c6.8,0,10-2.2,10-7.1S276.3,10,269.5,10z M282.4,39.3c0-4.9-3.2-7.1-10.4-7.1h-17.8v14.2H272C279.3,46.4,282.4,44.3,282.4,39.3z"/>
	<path class="st0" d="M307.5,28.2c0-15.9,10.6-27.4,27.2-27.4h1.1c16.6,0,27.2,11.5,27.2,27.4c0,15.9-10.6,27.4-27.2,27.4h-1.1
		C318.1,55.6,307.5,44.1,307.5,28.2z M335.8,47c10.8,0,17.7-7.4,17.7-18.8c0-11.4-6.8-18.8-17.7-18.8h-1.1
		c-10.8,0-17.7,7.4-17.7,18.8c0,11.4,6.8,18.8,17.7,18.8H335.8z"/>
	<path class="st0" d="M378.4,28.2c0-15.9,10.6-27.4,27.2-27.4h1.1c16.6,0,27.2,11.5,27.2,27.4c0,15.9-10.6,27.4-27.2,27.4h-1.1
		C389,55.6,378.4,44.1,378.4,28.2z M406.7,47c10.8,0,17.7-7.4,17.7-18.8c0-11.4-6.8-18.8-17.7-18.8h-1.1c-10.8,0-17.7,7.4-17.7,18.8
		c0,11.4,6.8,18.8,17.7,18.8H406.7z"/>
	<path class="st0" d="M499.1,54.7h-9.7c-0.6,0-0.9-0.2-1.3-0.6c-6.8-8-14.9-16.1-21.8-22h-4.4v21.8c0,0.5-0.3,0.8-0.8,0.8h-7.5
		c-0.5,0-0.8-0.3-0.8-0.8V2.5c0-0.5,0.3-0.8,0.8-0.8h7.5c0.5,0,0.8,0.3,0.8,0.8v20.9h4.5c7.4-6.7,14.2-13.8,19.7-21
		c0.4-0.5,0.7-0.6,1.1-0.6h9.2c0.5,0,0.7,0.2,0.7,0.5c0,0.2-0.1,0.3-0.3,0.6c-8.1,10-16.2,18.2-23.6,24.6
		c9.4,7.9,18.3,16.8,26.3,26.3C499.9,54.2,499.7,54.7,499.1,54.7z"/>
</g>
</svg>
