<?xml version="1.0" encoding="utf-8"?>
<!-- Generator: Adobe Illustrator 24.0.0, SVG Export Plug-In . SVG Version: 6.00 Build 0)  -->
<svg version="1.1" id="Capa_1" xmlns="http://www.w3.org/2000/svg" xmlns:xlink="http://www.w3.org/1999/xlink" x="0px" y="0px"
	 viewBox="0 0 44.6 44.6" style="enable-background:new 0 0 44.6 44.6;" xml:space="preserve">
<style type="text/css">
	.st0{fill:#FFFFFF;}
</style>
<path class="st0" d="M42,0H2.5C1.2,0,0.1,1.1,0.1,2.5h0V42c0,1.4,1.1,2.5,2.5,2.5h0h21.3V27.3H18v-6.7h5.8v-4.9
	c0-5.7,3.5-8.9,8.6-8.9c1.7,0,3.5,0.1,5.2,0.3v6H34c-2.8,0-3.3,1.3-3.3,3.3v4.3h6.7l-0.9,6.7h-5.8v17.2H42c1.4,0,2.5-1.1,2.5-2.5
	l0,0V2.5C44.5,1.1,43.4,0,42,0L42,0z"/>
</svg>
