<?xml version="1.0" encoding="utf-8"?>
<!-- Generator: Adobe Illustrator 24.0.0, SVG Export Plug-In . SVG Version: 6.00 Build 0)  -->
<svg version="1.1" id="Capa_1" xmlns="http://www.w3.org/2000/svg" xmlns:xlink="http://www.w3.org/1999/xlink" x="0px" y="0px"
	 viewBox="0 0 44.6 44.6" style="enable-background:new 0 0 44.6 44.6;" xml:space="preserve">
<style type="text/css">
	.st0{fill:#FFFFFF;}
</style>
<g>
	<path class="st0" d="M22.3,4.1c5.9,0,6.6,0,8.9,0.1c2.2,0.1,3.3,0.5,4.1,0.8c1,0.4,1.8,0.9,2.5,1.7c0.8,0.8,1.3,1.5,1.7,2.5
		c0.3,0.8,0.7,2,0.8,4.1c0.1,2.3,0.1,3,0.1,8.9s0,6.6-0.1,8.9c-0.1,2.2-0.5,3.3-0.8,4.1c-0.4,1-0.9,1.8-1.7,2.5
		c-0.8,0.8-1.5,1.3-2.5,1.7c-0.8,0.3-2,0.7-4.1,0.8c-2.3,0.1-3,0.1-8.9,0.1s-6.6,0-8.9-0.1c-2.2-0.1-3.3-0.5-4.1-0.8
		c-1-0.4-1.8-0.9-2.5-1.7c-0.8-0.8-1.3-1.5-1.7-2.5c-0.3-0.8-0.7-2-0.8-4.1c-0.1-2.3-0.1-3-0.1-8.9s0-6.6,0.1-8.9
		C4.4,11.1,4.7,10,5,9.2c0.4-1,0.9-1.8,1.7-2.5C7.5,5.9,8.2,5.4,9.2,5c0.8-0.3,2-0.7,4.1-0.8C15.7,4.1,16.4,4.1,22.3,4.1 M22.3,0.1
		c-6,0-6.8,0-9.1,0.1c-2.4,0.1-4,0.5-5.4,1C6.3,1.8,5.1,2.6,3.9,3.8c-1.2,1.2-2,2.5-2.6,3.9c-0.5,1.4-0.9,3-1,5.4
		c-0.1,2.4-0.1,3.1-0.1,9.1c0,6,0,6.8,0.1,9.1c0.1,2.4,0.5,4,1,5.4c0.6,1.5,1.3,2.7,2.6,3.9c1.2,1.2,2.5,2,3.9,2.6
		c1.4,0.5,3,0.9,5.4,1c2.4,0.1,3.1,0.1,9.1,0.1s6.8,0,9.1-0.1c2.4-0.1,4-0.5,5.4-1c1.5-0.6,2.7-1.3,3.9-2.6c1.2-1.2,2-2.5,2.6-3.9
		c0.5-1.4,0.9-3,1-5.4c0.1-2.4,0.1-3.1,0.1-9.1s0-6.8-0.1-9.1c-0.1-2.4-0.5-4-1-5.4c-0.6-1.5-1.3-2.7-2.6-3.9
		c-1.2-1.2-2.5-2-3.9-2.6c-1.4-0.5-3-0.9-5.4-1C29.1,0.1,28.3,0.1,22.3,0.1L22.3,0.1z"/>
	<path class="st0" d="M22.3,10.9c-6.3,0-11.4,5.1-11.4,11.4S16,33.6,22.3,33.6s11.4-5.1,11.4-11.4S28.6,10.9,22.3,10.9z M22.3,29.6
		c-4.1,0-7.4-3.3-7.4-7.4s3.3-7.4,7.4-7.4s7.4,3.3,7.4,7.4S26.4,29.6,22.3,29.6z"/>
	<circle class="st0" cx="34.1" cy="10.4" r="2.7"/>
</g>
</svg>
