<?xml version="1.0" encoding="utf-8"?>
<!-- Generator: Adobe Illustrator 24.0.0, SVG Export Plug-In . SVG Version: 6.00 Build 0)  -->
<svg version="1.1" id="Capa_1" xmlns="http://www.w3.org/2000/svg" xmlns:xlink="http://www.w3.org/1999/xlink" x="0px" y="0px"
	 viewBox="0 0 44.6 44.6" style="enable-background:new 0 0 44.6 44.6;" xml:space="preserve">
<style type="text/css">
	.st0{fill-rule:evenodd;clip-rule:evenodd;fill:#FFFFFF;}
</style>
<g id="WA_Logo_2_">
	<g>
		<path class="st0" d="M37.8,6.6c-4.2-4.2-9.7-6.5-15.6-6.5C10.1,0.1,0.2,10,0.2,22.2c0,3.9,1,7.7,2.9,11L0,44.6l11.7-3.1
			c3.2,1.8,6.8,2.7,10.5,2.7h0c0,0,0,0,0,0c12.2,0,22.1-9.9,22.1-22.1C44.3,16.3,42,10.8,37.8,6.6z M22.2,40.5L22.2,40.5
			c-3.3,0-6.5-0.9-9.3-2.6l-0.7-0.4l-6.9,1.8l1.9-6.8l-0.4-0.7c-1.8-2.9-2.8-6.3-2.8-9.8c0-10.1,8.2-18.3,18.3-18.3
			c4.9,0,9.5,1.9,13,5.4c3.5,3.5,5.4,8.1,5.4,13C40.6,32.3,32.3,40.5,22.2,40.5z M32.3,26.8c-0.6-0.3-3.3-1.6-3.8-1.8
			c-0.5-0.2-0.9-0.3-1.2,0.3c-0.4,0.6-1.4,1.8-1.7,2.2c-0.3,0.4-0.6,0.4-1.2,0.1c-0.6-0.3-2.3-0.9-4.4-2.7c-1.6-1.5-2.7-3.3-3.1-3.8
			c-0.3-0.6,0-0.8,0.2-1.1c0.2-0.2,0.6-0.6,0.8-1c0.3-0.3,0.4-0.6,0.6-0.9c0.2-0.4,0.1-0.7,0-1c-0.1-0.3-1.2-3-1.7-4.1
			c-0.4-1.1-0.9-0.9-1.2-0.9c-0.3,0-0.7,0-1.1,0c-0.4,0-1,0.1-1.5,0.7c-0.5,0.6-1.9,1.9-1.9,4.6c0,2.7,2,5.3,2.3,5.7
			c0.3,0.4,3.9,5.9,9.4,8.3c1.3,0.6,2.3,0.9,3.1,1.2c1.3,0.4,2.5,0.4,3.5,0.2c1.1-0.2,3.3-1.3,3.7-2.6c0.5-1.3,0.5-2.4,0.3-2.6
			C33.2,27.2,32.8,27.1,32.3,26.8z"/>
	</g>
</g>
<g id="WA_Logo_3_">
	<g>
		<path class="st0" d="M37.9,6.5c-4.2-4.2-9.7-6.5-15.6-6.5C10.1,0.1,0.2,10,0.2,22.1c0,3.9,1,7.7,2.9,11L0.1,44.6l11.7-3.1
			c3.2,1.8,6.8,2.7,10.5,2.7h0c0,0,0,0,0,0c12.2,0,22.1-9.9,22.1-22.1C44.4,16.2,42.1,10.7,37.9,6.5z M22.3,40.5L22.3,40.5
			c-3.3,0-6.5-0.9-9.3-2.6l-0.7-0.4l-6.9,1.8l1.9-6.8l-0.4-0.7C4.9,29,4,25.6,4,22.1C4,12,12.2,3.8,22.3,3.8c4.9,0,9.5,1.9,13,5.4
			c3.5,3.5,5.4,8.1,5.4,13C40.6,32.2,32.4,40.5,22.3,40.5z M32.4,26.7c-0.6-0.3-3.3-1.6-3.8-1.8c-0.5-0.2-0.9-0.3-1.2,0.3
			c-0.4,0.6-1.4,1.8-1.7,2.2c-0.3,0.4-0.6,0.4-1.2,0.1c-0.6-0.3-2.3-0.9-4.4-2.7c-1.6-1.5-2.7-3.3-3.1-3.8c-0.3-0.6,0-0.8,0.2-1.1
			c0.2-0.2,0.6-0.6,0.8-1c0.3-0.3,0.4-0.6,0.6-0.9c0.2-0.4,0.1-0.7,0-1c-0.1-0.3-1.2-3-1.7-4.1c-0.4-1.1-0.9-0.9-1.2-0.9
			c-0.3,0-0.7,0-1.1,0c-0.4,0-1,0.1-1.5,0.7c-0.5,0.6-1.9,1.9-1.9,4.6c0,2.7,2,5.3,2.3,5.7c0.3,0.4,3.9,5.9,9.4,8.3
			c1.3,0.6,2.3,0.9,3.1,1.2c1.3,0.4,2.5,0.4,3.5,0.2c1.1-0.2,3.3-1.3,3.7-2.6c0.5-1.3,0.5-2.4,0.3-2.6C33.3,27.1,32.9,27,32.4,26.7z
			"/>
	</g>
</g>
</svg>
