<?xml version="1.0" encoding="utf-8"?>
<!-- Generator: Adobe Illustrator 24.0.0, SVG Export Plug-In . SVG Version: 6.00 Build 0)  -->
<svg version="1.1" id="Capa_1" xmlns="http://www.w3.org/2000/svg" xmlns:xlink="http://www.w3.org/1999/xlink" x="0px" y="0px"
	 viewBox="0 0 500 141.2" style="enable-background:new 0 0 500 141.2;" xml:space="preserve">
<g id="Wordbox_Studios_Logo">
	<path id="W_1_" d="M118,23.6L91.8,93.9H79.5L59.2,40.6L38.7,93.9H26.4L0.3,23.6h12.1l20.4,56l21.2-56h10.8l20.8,56.2l21-56.2H118z"
		/>
	<path id="O_5_" d="M112.3,58.7c0-20.6,15-35.2,35.4-35.2c20.4,0,35.3,14.6,35.3,35.2c0,20.6-14.9,35.3-35.3,35.3
		C127.3,94,112.3,79.3,112.3,58.7z M170.5,58.7c0-14.7-9.7-24.2-22.8-24.2s-23,9.5-23,24.2c0,14.7,9.9,24.4,23,24.4
		S170.5,73.5,170.5,58.7z"/>
	<path id="R_4_" d="M226.1,23.6v11.5c-1.1-0.1-3.1-0.1-4.1-0.1c-13.7,0-22.3,8.4-22.3,23.8v35.1H187V23.6h12.3v11.6
		C203.8,26.9,213.7,23.6,226.1,23.6z"/>
	<path id="D_4_" d="M281.9-0.1v31.7c-6.1-5.1-14.1-8.1-23.3-8.1c-20.4,0-35.4,14.6-35.4,35.2c0,20.6,15,35.3,35.4,35.3
		c9.2,0,17.2-3,23.3-8.1v8h11.8V-0.1H281.9z M258.6,83.1c-13.1,0-23-9.6-23-24.4c0-14.7,9.9-24.2,23-24.2c13.1,0,22.8,9.5,22.8,24.2
		C281.4,73.4,271.7,83.1,258.6,83.1z"/>
	<g id="BOX_4_">
		<path d="M305.1,31.7c6.1-5.1,14.1-8.1,23.3-8.1c20.4,0,35.4,14.6,35.4,35.2c0,19.5-13.4,33.7-32.1,35.2H401
			c-19.2-1.1-33.1-15.4-33.1-35.2c0-20.6,15-35.2,35.4-35.2c20.4,0,35.3,14.6,35.3,35.2c0,19.8-13.8,34.1-33,35.2h23.7l27.8-36
			l-27.8-34.3l15.4,0l19.6,25.3l20-25.3l15.5,0V0.1H305.1V31.7z"/>
		<polygon points="444.9,93.9 484.2,93.9 464.2,66.9 		"/>
		<polygon points="499.8,93.9 499.8,93.9 499.8,23.6 470.9,57.9 		"/>
		<path d="M351.4,58.7c0-14.7-9.9-24.2-23-24.2c-13.1,0-22.8,9.5-22.8,24.2s9.7,24.4,22.8,24.4C341.5,83.1,351.4,73.4,351.4,58.7z"
			/>
		<path d="M403.3,34.4c-13.1,0-23,9.5-23,24.2c0,14.7,9.9,24.4,23,24.4c13.1,0,22.8-9.6,22.8-24.4C426.1,44,416.4,34.4,403.3,34.4z"
			/>
		<path d="M305.1,93.9H325c-7.8-0.6-14.6-3.5-19.9-8V93.9z"/>
	</g>
	<g id="STUDIOS_4_">
		<path d="M100.1,138l0.8-1.3c1.6,1.7,4.6,2.9,7.7,2.9c4.7,0,6.8-2,6.8-4.6c0-7-14.6-2.8-14.6-11.4c0-3.3,2.5-6.2,8.3-6.2
			c2.6,0,5.3,0.8,7.1,2.1l-0.6,1.4c-1.9-1.3-4.3-2-6.4-2c-4.6,0-6.6,2.1-6.6,4.7c0,7,14.6,2.9,14.6,11.4c0,3.3-2.6,6.2-8.4,6.2
			C105.2,141.1,101.8,139.8,100.1,138z"/>
		<path d="M153.3,119.1h-8.4v-1.5h18.6v1.5H155V141h-1.7V119.1z"/>
		<path d="M193.2,131v-13.5h1.7V131c0,5.9,2.8,8.6,7.7,8.6s7.7-2.7,7.7-8.6v-13.4h1.7V131c0,6.7-3.6,10.1-9.4,10.1
			S193.2,137.7,193.2,131z"/>
		<path d="M246.2,117.6h9.3c7.4,0,12.5,4.9,12.5,11.7c0,6.8-5,11.7-12.5,11.7h-9.3V117.6z M255.3,139.4c6.6,0,10.9-4.2,10.9-10.2
			c0-6-4.3-10.2-10.9-10.2h-7.4v20.3H255.3z"/>
		<path d="M300.1,117.6h1.7V141h-1.7V117.6z"/>
		<path d="M333.9,129.3c0-6.8,5.2-11.9,12.2-11.9c7,0,12.2,5,12.2,11.9c0,6.8-5.2,11.9-12.2,11.9
			C339.1,141.1,333.9,136.1,333.9,129.3z M356.5,129.3c0-5.9-4.5-10.3-10.4-10.3c-6,0-10.5,4.4-10.5,10.3c0,5.9,4.5,10.3,10.5,10.3
			C352.1,139.6,356.5,135.2,356.5,129.3z"/>
		<path d="M388.1,138l0.8-1.3c1.6,1.7,4.6,2.9,7.7,2.9c4.7,0,6.8-2,6.8-4.6c0-7-14.6-2.8-14.6-11.4c0-3.3,2.5-6.2,8.3-6.2
			c2.6,0,5.3,0.8,7.1,2.1l-0.6,1.4c-1.9-1.3-4.3-2-6.4-2c-4.6,0-6.6,2.1-6.6,4.7c0,7,14.6,2.9,14.6,11.4c0,3.3-2.6,6.2-8.4,6.2
			C393.1,141.1,389.8,139.8,388.1,138z"/>
	</g>
</g>
</svg>
